<svg width="191" height="210" viewBox="0 0 191 210" fill="none" xmlns="http://www.w3.org/2000/svg">
<g style="mix-blend-mode:multiply" opacity="0.3">
<path opacity="0.06" d="M187.228 200.101C187.238 204.861 147.748 208.841 99.0077 208.971C50.2677 209.101 10.7477 205.351 10.7377 200.591C10.7277 195.831 50.2177 191.861 98.9577 191.721C147.698 191.581 187.208 195.341 187.228 200.101Z" fill="url(#paint0_radial_30_94)"/>
<path opacity="0.12" d="M183.548 200.141C183.558 204.651 145.718 208.411 99.0077 208.541C52.3077 208.671 14.4377 205.121 14.4177 200.611C14.4077 196.111 52.2577 192.341 98.9577 192.211C145.658 192.081 183.528 195.631 183.538 200.131L183.548 200.141Z" fill="url(#paint1_radial_30_94)"/>
<path opacity="0.19" d="M179.858 200.191C179.868 204.441 143.668 207.991 99.0077 208.111C54.3377 208.231 18.1177 204.891 18.1077 200.641C18.0977 196.391 54.2977 192.841 98.9677 192.721C143.638 192.601 179.858 195.941 179.868 200.191H179.858Z" fill="url(#paint2_radial_30_94)"/>
<path opacity="0.25" d="M176.178 200.231C176.188 204.231 141.638 207.561 99.0077 207.681C56.3677 207.801 21.8077 204.661 21.7877 200.661C21.7777 196.671 56.3277 193.331 98.9677 193.211C141.598 193.091 176.168 196.231 176.178 200.231Z" fill="url(#paint3_radial_30_94)"/>
<path opacity="0.31" d="M172.498 200.281C172.508 204.021 139.608 207.141 99.0077 207.261C58.4077 207.371 25.4877 204.431 25.4777 200.691C25.4677 196.951 58.3677 193.831 98.9677 193.711C139.568 193.601 172.488 196.541 172.498 200.281Z" fill="url(#paint4_radial_30_94)"/>
<path opacity="0.38" d="M168.818 200.321C168.828 203.801 137.578 206.721 99.0077 206.821C60.4377 206.931 29.1677 204.191 29.1577 200.711C29.1577 197.231 60.4077 194.321 98.9677 194.211C137.538 194.101 168.808 196.841 168.808 200.321H168.818Z" fill="url(#paint5_radial_30_94)"/>
<path opacity="0.44" d="M165.128 200.371C165.138 203.601 135.528 206.301 98.9978 206.401C62.4678 206.501 32.8478 203.971 32.8378 200.741C32.8378 197.511 62.4378 194.811 98.9678 194.711C135.498 194.611 165.118 197.141 165.128 200.371Z" fill="url(#paint6_radial_30_94)"/>
<path opacity="0.5" d="M161.448 200.411C161.448 203.381 133.498 205.871 98.9978 205.971C64.4978 206.071 36.5278 203.731 36.5178 200.761C36.5178 197.791 64.4678 195.301 98.9678 195.211C133.468 195.111 161.438 197.451 161.448 200.421V200.411Z" fill="url(#paint7_radial_30_94)"/>
<path opacity="0.56" d="M157.768 200.461C157.768 203.181 131.468 205.451 99.0078 205.541C66.5478 205.631 40.2178 203.501 40.2178 200.791C40.2178 198.081 66.5178 195.801 98.9878 195.711C131.448 195.621 157.768 197.751 157.778 200.461H157.768Z" fill="url(#paint8_radial_30_94)"/>
<path opacity="0.62" d="M154.078 200.501C154.078 202.961 129.428 205.021 98.9978 205.111C68.5678 205.191 43.8978 203.271 43.8878 200.811C43.8878 198.351 68.5378 196.291 98.9678 196.201C129.398 196.121 154.068 198.041 154.078 200.501Z" fill="url(#paint9_radial_30_94)"/>
<path opacity="0.69" d="M150.398 200.551C150.398 202.751 127.388 204.611 98.9978 204.691C70.5978 204.771 47.5778 203.051 47.5778 200.841C47.5778 198.641 70.5878 196.791 98.9778 196.711C127.368 196.631 150.398 198.351 150.398 200.561V200.551Z" fill="url(#paint10_radial_30_94)"/>
<path opacity="0.75" d="M146.718 200.591C146.718 202.541 125.358 204.181 98.9978 204.251C72.6378 204.321 51.2578 202.801 51.2578 200.851C51.2578 198.901 72.6178 197.261 98.9778 197.191C125.338 197.121 146.708 198.641 146.718 200.581V200.591Z" fill="url(#paint11_radial_30_94)"/>
<path opacity="0.81" d="M143.028 200.641C143.028 202.331 123.318 203.761 98.9877 203.831C74.6577 203.901 54.9377 202.581 54.9277 200.891C54.9277 199.201 74.6377 197.771 98.9677 197.701C123.298 197.631 143.018 198.951 143.028 200.641Z" fill="url(#paint12_radial_30_94)"/>
<path opacity="0.88" d="M139.348 200.681C139.348 202.121 121.288 203.331 98.9877 203.401C76.6977 203.461 58.6177 202.351 58.6177 200.911C58.6177 199.471 76.6777 198.261 98.9777 198.201C121.268 198.141 139.348 199.251 139.348 200.691V200.681Z" fill="url(#paint13_radial_30_94)"/>
<path opacity="0.94" d="M135.668 200.731C135.668 201.911 119.248 202.911 98.9977 202.971C78.7377 203.031 62.3177 202.111 62.3077 200.931C62.3077 199.751 78.7177 198.751 98.9777 198.691C119.238 198.631 135.658 199.541 135.668 200.721V200.731Z" fill="url(#paint14_radial_30_94)"/>
<path d="M131.978 200.771C131.978 201.691 117.208 202.491 98.9877 202.541C80.7677 202.591 65.9877 201.881 65.9877 200.961C65.9877 200.041 80.7577 199.251 98.9777 199.191C117.198 199.141 131.978 199.851 131.978 200.771Z" fill="#263169"/>
</g>
<path d="M185.248 98.5212C185.248 146.391 146.438 185.201 98.5678 185.201C50.6978 185.201 11.8878 146.391 11.8878 98.5212C11.8878 50.6512 50.6978 11.8412 98.5678 11.8412C146.438 11.8412 185.248 50.6512 185.248 98.5212Z" fill="url(#paint15_radial_30_94)"/>
<path style="mix-blend-mode:screen" d="M181.568 122.311C180.418 122.341 178.928 122.881 178.908 123.271C178.888 123.661 177.308 124.371 176.788 124.581C176.268 124.791 175.258 126.401 175.028 126.931C174.808 127.461 173.518 127.301 173.038 127.521C172.568 127.731 171.588 128.521 171.578 129.001C171.578 129.471 171.308 129.421 170.988 128.881L170.358 129.541L169.618 130.361C169.188 131.701 167.778 133.381 167.288 133.521C166.798 133.651 166.718 136.001 166.718 136.941C166.718 137.881 167.078 139.051 167.528 139.531L167.628 140.281L167.788 141.781C167.528 142.931 168.408 143.961 168.658 144.171C168.908 144.361 171.058 143.781 171.878 143.581C172.218 143.501 172.648 143.311 173.048 143.111C176.888 136.691 179.898 129.721 181.988 122.371C181.828 122.341 181.678 122.321 181.528 122.331L181.568 122.311ZM38.1777 124.541C38.0577 124.771 39.6077 126.371 40.2077 126.911C40.8077 127.461 42.0877 130.061 42.3477 130.921C42.6077 131.781 42.4577 133.171 42.3677 133.501C42.2877 133.831 42.6577 134.551 42.7277 134.851C42.7777 135.151 42.1877 137.711 42.4177 138.731C42.6477 139.761 41.2177 142.961 41.2477 144.551C41.2877 146.141 41.9977 148.221 42.2977 148.061C42.5877 147.911 42.6877 149.511 42.1977 149.701C41.7077 149.901 41.1477 151.161 41.4177 151.231C41.6877 151.301 41.3977 152.541 41.4777 153.051C41.5477 153.551 41.9777 156.861 42.0677 157.681C42.1577 158.501 43.3377 160.511 43.5877 161.191C43.8277 161.881 44.0877 163.161 44.1777 163.361C44.2777 163.561 44.3977 163.761 44.4077 163.771C44.4277 163.771 45.3777 164.131 45.6477 164.341C45.9277 164.541 47.7877 164.421 48.3977 164.291C49.0077 164.171 48.4477 163.611 48.1777 163.311C47.9077 163.011 47.6577 161.541 47.3477 161.391C47.0377 161.251 46.8977 159.381 47.1777 158.961C47.4577 158.541 48.5677 157.881 48.6877 157.541C48.7977 157.191 48.8377 155.561 48.5377 155.341C48.2377 155.121 48.6277 153.141 48.3977 152.161C48.1777 151.181 50.0977 150.291 50.2177 149.511C50.3277 148.731 52.4177 147.891 52.8877 147.511C53.3577 147.121 53.7677 144.891 53.5477 144.411C53.3177 143.931 54.3177 143.541 54.7677 143.541C55.2177 143.541 55.7077 143.221 55.8777 143.221C56.0477 143.221 56.5777 142.231 56.8577 142.001C57.1477 141.771 57.7377 139.421 58.2477 139.031C58.7677 138.641 59.1977 137.221 59.1977 136.801C59.1977 136.381 59.9877 135.141 60.2577 134.771C60.5177 134.401 62.4677 133.501 62.8177 133.361C63.1677 133.211 63.6977 130.081 63.8277 128.961C63.9677 127.841 64.5477 126.331 64.5877 125.971C64.6277 125.601 65.2477 125.281 65.3577 125.161C65.4777 125.041 65.9377 123.611 66.2377 123.281C66.5377 122.951 67.6177 121.591 67.6377 121.281C67.6577 120.971 67.8277 120.191 68.0077 119.541V117.561C67.6677 116.621 66.6177 115.431 66.3577 115.701C66.0877 115.961 64.8777 114.861 64.2677 114.631C63.6477 114.401 62.1177 114.211 61.7277 114.211C61.3377 114.211 59.9977 113.111 59.3977 112.921C58.7977 112.741 57.2677 112.441 56.9777 112.261C56.6977 112.081 56.3177 109.801 55.0877 109.051C53.8577 108.301 51.6877 106.561 51.4477 105.921C51.2077 105.281 48.8377 103.941 48.0977 103.541C47.3677 103.131 46.2577 103.041 46.1177 103.191C45.9677 103.331 45.0577 101.951 44.5877 101.561C44.1077 101.181 42.6877 100.851 42.6277 101.201C42.5577 101.551 41.6177 101.371 41.3977 101.071C41.1777 100.781 40.4477 101.191 40.0977 101.311C39.7577 101.421 38.5677 103.221 38.0377 103.661C37.4877 104.091 36.8477 103.261 36.4877 103.101C36.1277 102.951 34.7677 103.371 34.3977 103.641C34.0277 103.901 33.1677 101.731 33.3677 100.731C33.5577 99.7312 32.4677 97.7412 31.6177 97.6912C30.7777 97.6412 30.5177 95.5512 30.6777 94.7812C30.8477 94.0112 29.1477 93.5312 28.7277 93.4812C28.2977 93.4212 27.2377 94.5112 27.0677 95.0312C26.8877 95.5512 23.0377 94.3212 23.4977 92.0212C23.9377 89.7212 25.7677 87.3312 26.2177 87.0512C26.6677 86.7712 29.1377 86.6312 29.6877 86.9412C30.2377 87.2612 30.7277 86.9412 30.8277 86.8012C30.9177 86.6612 32.9277 86.8212 33.5377 87.0712C34.1377 87.3112 34.9977 89.6412 35.6177 89.9212C36.2477 90.2112 36.4677 88.4212 36.5677 87.9812C36.6677 87.5412 36.2677 86.4412 36.1177 86.1312C35.9577 85.8212 37.1177 83.0012 38.0677 82.5212C38.9977 82.0412 39.9977 80.4712 39.9277 80.1912C39.8377 79.9212 40.6777 79.7012 40.8977 79.5812C41.1277 79.4712 40.8677 77.1812 41.2377 76.6912C41.6177 76.2012 43.3777 75.1512 43.9377 74.9212C44.4977 74.6812 44.9177 73.2412 44.7177 72.9912C44.5077 72.7312 46.1577 71.3312 47.0177 71.0612C47.8777 70.8012 48.6177 71.5512 48.4077 71.6712C48.5777 71.5712 49.7577 70.9612 50.2577 70.6312C50.8477 70.2412 50.2677 69.1712 49.8877 68.8512C49.5177 68.5412 49.7377 67.3012 50.1877 67.1912C50.6477 67.0812 51.0477 66.0112 50.9177 65.7812C50.7977 65.5412 52.8077 65.9712 53.5677 65.4012C54.3177 64.8312 53.7877 66.7612 53.2277 67.5412C52.6777 68.3212 53.6377 69.0512 53.9977 68.9112C54.3577 68.7612 54.7377 69.3212 54.8077 69.5412C54.8777 69.7612 55.6477 69.3112 56.1577 69.5412C56.6677 69.7612 56.9577 68.8512 57.0077 68.4312C57.0377 68.0112 55.7977 67.1312 55.5977 66.6312C55.4077 66.1212 55.3177 63.1812 55.2977 62.5812C55.2677 61.9812 54.4577 61.0012 54.1977 61.1812C53.9377 61.3512 53.4077 59.6112 52.9877 59.2412C52.5577 58.8612 52.4677 58.0312 52.4877 57.7512C52.5077 57.4712 51.0677 55.9612 50.7177 55.2612C50.3777 54.5612 49.8877 54.7012 49.8577 55.0212C49.8177 55.3412 48.8177 55.3812 48.4077 55.3512C47.9977 55.3112 47.6577 53.7212 47.6577 53.1212C47.6577 52.5212 45.7977 52.4212 45.4977 51.9312C45.1877 51.4512 43.9777 51.6812 43.7877 51.3412C43.5877 51.0112 42.5177 50.7012 42.3077 50.8212C42.0877 50.9512 42.1877 55.2712 41.9877 56.4312C41.7777 57.6012 40.7977 58.6212 40.4277 58.5912C40.0777 58.5712 40.2877 59.4212 40.5377 59.3412C40.7977 59.2612 39.8377 60.6112 39.7177 61.5012C39.5877 62.3812 38.6977 61.4612 38.5477 60.6612C38.3977 59.8612 37.5177 58.7712 37.3577 59.0512C37.1877 59.3212 36.5877 58.7212 36.3177 58.8912C36.0577 59.0612 34.3977 57.9312 33.7277 57.5612C33.0577 57.2112 32.6877 55.1512 32.2977 54.9712C31.9077 54.7812 32.2377 54.5412 32.2177 54.2312C32.2177 53.9212 33.5177 52.7212 33.9177 52.2512C34.3077 51.7712 35.7477 49.9012 36.3177 49.5012C36.8877 49.0912 37.3377 48.0312 37.2377 47.8312C37.1377 47.6412 39.6777 46.8512 40.3577 46.6112C41.0377 46.3712 41.6377 44.4612 41.7277 43.9112C41.8177 43.3612 41.2977 42.3212 40.9777 42.1812C40.6577 42.0412 41.9377 42.0012 42.3577 42.2112C42.7877 42.4212 44.0877 41.8212 44.6077 42.1012C45.1177 42.3712 46.1677 42.9912 46.9177 43.4712L46.7577 44.8812L46.4477 47.2612C44.4477 48.0912 43.8677 49.5212 44.5677 49.4912C45.2677 49.4512 48.4577 50.8712 49.3677 51.5212C50.2677 52.1612 50.5477 50.5912 50.8177 50.0612C51.0877 49.5412 50.9977 48.0112 50.7877 47.7112C50.5677 47.4112 51.8277 47.5112 52.1877 47.8512C52.5377 48.1912 52.9577 47.5012 53.2277 47.3812C53.4977 47.2612 53.6277 45.9512 53.7877 45.6812C53.9277 45.4112 53.1877 45.1412 53.1677 44.8212C53.1477 44.4912 51.7077 43.8712 51.2477 43.6412C50.7777 43.4212 50.6677 42.4312 50.8977 42.2612C51.1277 42.0912 50.7377 40.8312 50.5077 40.4112C50.2877 39.9912 48.7777 39.6612 48.2777 39.6612C47.7777 39.6612 47.2677 38.5012 46.9777 38.3312C46.6877 38.1712 44.7677 37.9512 44.2977 38.0912C43.8177 38.2312 42.9477 36.7312 42.1477 37.1812C41.3477 37.6412 40.5177 36.6412 40.1577 36.4412C39.7877 36.2412 37.9177 38.2612 37.9277 39.6812C37.9477 41.1012 38.6577 42.4712 38.9577 42.5112C39.2477 42.5512 38.8877 43.8312 38.5577 44.2012C38.2377 44.5612 37.4377 43.8112 37.7477 43.4912C38.0377 43.1712 36.9277 41.6812 36.5477 41.0812C36.2777 40.6412 35.2977 40.2512 34.6377 39.9912C34.2477 40.4112 33.8677 40.8412 33.4977 41.2712C33.6477 41.7912 33.8177 42.4612 33.6477 42.9712C33.3677 43.8412 32.6477 43.9712 32.5977 43.5912C32.5777 43.4212 32.2077 43.3012 31.7777 43.2412C21.2577 55.8512 14.2577 71.4912 12.2477 88.6312C12.6677 89.1112 13.1377 89.6812 13.2677 90.0812C13.5077 90.8412 14.8377 91.3512 15.0877 91.5012C15.3277 91.6512 15.4177 90.0412 15.2377 89.6212C15.0677 89.2012 15.5577 88.9512 15.5477 89.2612C15.5377 89.5712 16.7977 90.9912 17.2077 91.5012C17.6277 92.0112 18.0477 95.3312 18.4477 96.0312C18.8377 96.7412 22.6677 98.2212 23.8977 98.4712C25.1277 98.7312 26.6777 100.111 26.9177 100.501C27.1477 100.901 28.7877 101.101 29.1377 101.261C29.4977 101.431 30.3277 102.531 30.6777 102.761C31.0177 102.991 31.2977 103.651 31.2977 103.831C31.2977 104.011 33.4577 104.821 33.9777 105.401C34.4977 105.981 35.3677 105.821 35.5277 105.581C35.6977 105.341 36.1177 106.731 36.3377 107.211C36.5577 107.691 36.6077 108.871 36.4377 109.061C36.2677 109.241 35.9577 111.421 35.5877 111.851C35.2177 112.291 34.4577 115.441 34.6177 116.061C34.7877 116.691 35.7977 117.971 36.2377 118.171C36.6677 118.361 36.4877 119.041 36.1477 119.081C35.7977 119.121 35.9577 122.141 36.7777 122.591C37.5877 123.031 38.2777 124.371 38.1577 124.601L38.1777 124.541ZM42.4677 35.0112C43.5077 34.8412 45.2377 34.5512 45.3577 34.2612C45.4377 34.0212 45.4577 33.3112 45.2577 33.0612C45.4277 33.0712 45.6177 33.0812 45.7577 33.0812C46.1477 33.0812 46.8077 30.9212 47.2277 30.4112C47.6477 29.9012 50.0177 29.1612 50.5877 28.8212C51.1577 28.4712 52.3977 27.2812 52.8677 27.1412C53.3477 27.0012 54.0377 25.8912 53.9377 25.6612C53.8377 25.4412 55.5477 24.4012 56.1977 24.1212C56.8377 23.8412 57.1877 23.0812 56.9377 23.0512C56.7877 23.0312 53.1577 24.9312 49.8377 26.8112C46.0477 29.3812 42.4877 32.2612 39.1477 35.3912C40.1877 35.3112 41.7877 35.1212 42.4677 35.0112ZM105.278 143.101C106.388 142.451 108.278 139.651 108.898 139.071C109.518 138.481 109.968 136.371 110.098 135.911C110.218 135.451 111.168 134.701 111.518 134.601C111.868 134.501 112.998 129.821 113.988 128.791C114.978 127.771 116.138 122.821 116.008 121.031C115.878 119.261 116.648 115.861 116.878 115.051C117.118 114.241 118.358 112.791 118.738 112.491C119.118 112.191 121.508 108.661 122.278 107.391C123.038 106.121 123.778 103.341 123.628 102.691C123.478 102.041 121.818 101.581 121.508 101.901C121.198 102.221 119.638 102.491 119.138 102.491C118.638 102.491 117.488 99.8112 116.778 99.2612C116.068 98.7112 115.428 95.6412 115.018 95.0612C114.608 94.4812 113.458 93.0112 113.098 92.6712C112.738 92.3412 112.678 90.7012 112.598 90.2612C112.518 89.8212 113.288 90.5612 113.428 91.2012C113.568 91.8512 115.398 94.4712 115.968 95.3512C116.538 96.2312 118.038 99.0312 118.418 99.9212C118.798 100.791 122.138 100.351 123.228 99.8412C124.308 99.3212 125.658 98.4612 125.718 98.1612C125.768 97.8612 127.498 97.0612 127.968 96.6812C128.448 96.3012 128.878 94.2912 129.188 93.9712C129.498 93.6412 128.938 91.7312 128.578 91.1612C128.218 90.5912 126.488 90.1312 126.138 90.3612C125.788 90.5812 125.038 89.0812 124.768 88.5212C124.508 87.9612 123.178 87.2812 123.028 86.9112C122.888 86.5212 123.388 85.9312 123.598 85.8012C123.808 85.6712 126.248 87.3812 126.958 88.2312C127.658 89.0812 128.458 90.6512 128.598 90.9212C128.718 91.1912 130.648 91.3312 131.088 91.0112C131.518 90.6912 132.008 90.7812 132.178 91.1912L132.788 91.0812L134.908 90.7512C135.908 91.8312 136.198 92.7712 136.178 92.9912C136.158 93.2012 136.788 94.0812 137.198 94.1712C137.608 94.2612 137.908 95.6512 138.038 95.9912C138.158 96.3312 139.368 98.4012 139.608 99.2812C139.858 100.151 140.888 101.851 141.138 102.311C141.378 102.771 141.588 104.091 141.588 104.441C141.588 104.791 142.358 105.511 142.838 105.481C143.318 105.451 144.288 102.421 144.518 101.291C144.738 100.161 145.518 99.2312 145.738 99.2312C145.958 99.2312 146.138 98.6012 146.138 98.3512C146.138 98.1012 147.358 98.1412 147.478 97.8312C147.578 97.5212 147.948 95.5212 148.378 95.2212C148.818 94.9212 150.368 93.9012 150.918 93.7112C151.458 93.5212 152.848 94.7212 153.158 95.2812C153.468 95.8412 153.748 97.2612 153.628 97.5012C153.508 97.7312 154.358 98.9612 155.108 98.9412C155.838 98.9212 156.078 99.8812 156.098 100.231C156.128 100.581 157.108 101.571 157.298 102.011C157.488 102.451 157.438 103.661 157.298 103.941C157.158 104.211 157.248 105.801 157.398 106.251C157.538 106.691 159.818 109.001 160.668 109.701C161.528 110.401 161.928 108.271 161.488 107.611C161.058 106.951 159.568 105.411 159.218 104.951C158.868 104.491 158.808 102.641 158.938 102.131C159.068 101.611 160.238 102.411 160.728 102.791C161.218 103.171 161.858 104.001 161.868 104.281C161.888 104.551 164.938 102.841 165.038 100.991C165.148 99.1412 166.168 97.0412 166.258 96.5612C166.358 96.0712 165.958 95.4012 165.698 95.3812C165.438 95.3512 166.148 93.9612 167.008 93.9812C167.868 94.0112 169.928 91.7112 170.408 90.8012C170.898 89.8912 171.878 89.1412 171.988 89.0212C172.108 88.9112 172.788 86.7612 172.908 85.8712C173.028 84.9812 172.408 83.5912 172.328 83.1312C172.258 82.6712 171.518 81.6112 171.318 81.2812C171.128 80.9512 170.948 79.7012 171.068 79.4712C171.178 79.2412 171.948 78.9912 172.028 78.7912C172.118 78.5812 172.998 77.6412 172.928 77.2212C172.858 76.8012 173.478 77.7612 173.878 78.1012C174.278 78.4412 174.718 80.6612 175.228 80.9012C175.718 81.1412 177.748 78.5512 177.498 76.8812C177.248 75.2112 178.088 73.0712 178.578 72.8812C178.948 72.7412 179.898 71.3812 180.548 70.4112C176.088 57.5412 168.698 46.0412 159.158 36.7012C159.048 36.7012 158.928 36.7112 158.828 36.7012L158.088 36.5412C156.838 36.2812 156.118 34.9412 156.328 34.6412C156.398 34.5412 156.388 34.3212 156.328 34.0512C155.638 33.4212 154.928 32.8112 154.198 32.2112C153.618 32.1912 152.988 32.2112 152.628 32.1912C151.878 32.1612 150.258 31.6312 149.968 31.3412C149.678 31.0512 148.698 31.5912 148.648 32.1312C148.578 32.6712 146.878 32.9212 146.728 33.3312C146.558 33.7412 145.678 33.7712 145.508 33.5412C145.338 33.3112 143.758 34.1012 142.978 34.2112C142.198 34.3212 140.738 34.9612 140.388 35.1112C140.038 35.2612 139.208 36.0812 139.068 36.4112C138.938 36.7512 137.928 37.3112 137.608 37.4412C137.278 37.5712 137.348 39.0312 137.768 39.2412C138.178 39.4412 136.988 39.0612 136.468 38.7912C135.938 38.5312 135.358 39.4212 135.198 39.7212C135.028 40.0212 134.548 39.5312 134.568 39.1012C134.588 38.6612 133.268 38.3112 133.098 38.6512C132.918 39.0012 132.008 38.5412 131.628 38.3412C131.248 38.1412 129.618 39.8412 129.008 40.4612C128.398 41.0712 125.508 41.5412 124.958 41.3112C124.418 41.0812 123.878 42.5912 124.348 42.7012C124.808 42.7912 123.168 42.6212 122.268 42.7012C121.368 42.7912 118.748 43.8412 118.128 44.3012C117.498 44.7712 116.998 44.2012 116.998 43.8412C116.998 43.4812 115.998 43.1512 115.708 43.0512C115.418 42.9512 114.828 45.0112 114.318 45.4112C113.798 45.8112 113.178 43.8012 111.948 43.4712C110.728 43.1412 108.818 41.9612 108.268 41.8212C107.728 41.6812 106.638 40.5312 106.328 40.2012C106.018 39.8712 104.458 39.6012 103.958 39.6012C103.458 39.6012 101.838 40.5312 101.408 40.8912C100.958 41.2612 100.318 41.1812 100.098 41.3212C99.8777 41.4512 98.0477 43.2412 97.3477 43.8012C96.6377 44.3612 95.3977 46.7712 94.9977 47.3512C94.5877 47.9212 94.0077 48.0312 93.7677 48.0512C93.5277 48.0612 93.3377 48.7112 93.3377 48.9412C93.3377 49.1712 91.2377 50.2712 91.0177 51.2312C90.7977 52.1812 91.2177 54.3612 91.2177 55.1412C91.2177 55.9212 91.9977 57.4512 92.5777 57.4812C93.1577 57.5112 92.8577 58.8012 92.6977 59.1612C92.5477 59.5212 93.0677 59.9212 93.0477 60.2312C93.0377 60.5412 91.5777 60.9712 91.1277 61.1412C90.6677 61.3112 89.9477 62.3212 89.8477 62.7012C89.7677 63.0312 88.3677 63.2712 87.9077 63.7112C88.0177 63.3912 88.1777 62.9412 88.3077 62.7012C88.5777 62.1912 88.2077 61.3012 87.9877 61.1212C87.7677 60.9312 87.6677 58.4112 87.3077 57.8712C86.9577 57.3212 86.0677 56.4112 85.8477 56.2312C85.6277 56.0612 85.9977 55.3912 86.1277 55.1112C86.2577 54.8312 84.9477 54.6712 84.5877 54.8812C84.2277 55.0812 84.0377 57.5912 83.8877 58.2712C83.7377 58.9512 84.5277 60.0112 84.7477 60.0512C84.9577 60.1012 84.8977 61.3312 84.4477 61.3712C83.9877 61.4212 83.5677 63.2112 83.8077 63.6212C84.0477 64.0312 83.4777 64.8412 83.2077 65.0212C82.9377 65.2012 84.9577 65.1012 85.8877 65.0712C86.8077 65.0512 87.5377 65.4612 87.4377 65.5412C87.3377 65.6212 85.6677 65.8712 85.3677 66.2612C85.0677 66.6612 83.9377 67.4212 83.7077 67.7312C83.4877 68.0312 84.0777 68.7112 84.5677 68.6812C85.0477 68.6512 85.5977 70.3412 85.9677 70.6512C86.3377 70.9712 86.1977 71.8412 86.0477 72.0812C85.8677 72.3212 83.6177 71.9212 82.7577 72.1312C81.8977 72.3412 80.8077 74.1612 80.7377 74.8412C80.6577 75.5312 80.8777 77.5012 80.9977 78.0512C81.0977 78.5912 82.9077 78.9312 83.2677 79.2012C83.6377 79.4612 85.3577 79.2012 85.7277 79.3712C86.0777 79.5412 87.2377 77.6312 87.4677 76.7412C87.6877 75.8512 89.5277 74.2212 89.9077 73.6112C90.2877 73.0112 92.2677 73.0812 92.7577 72.7612C93.2477 72.4512 92.9777 74.2612 93.2077 75.2612C93.4377 76.2612 95.3377 76.1412 95.0577 75.2012C94.7777 74.2712 95.2477 73.8612 95.3277 74.2012C95.4077 74.5312 97.2277 75.2812 97.5677 75.8012C97.9077 76.3312 97.8177 77.4512 97.4077 77.4312C97.0077 77.4112 96.9877 78.6612 97.4177 78.7912C97.8377 78.9312 98.4177 77.3912 98.8777 77.1712C99.3377 76.9412 99.7077 75.9912 99.4877 75.9112C99.2877 75.8412 99.8777 74.9812 100.138 75.2712C100.398 75.5512 99.1677 73.4112 98.3877 72.6312C97.6177 71.8512 98.1577 72.2012 99.6077 73.4012L100.608 74.8012C100.808 75.0512 101.058 75.8212 101.228 76.1012L101.468 76.5112C101.658 77.0012 101.838 78.3412 101.838 78.7112C101.838 79.0812 102.618 79.7812 103.098 79.7512C103.578 79.7212 103.938 79.9812 103.838 79.9912C103.738 80.0112 104.148 80.9312 104.628 80.9612C105.098 80.9812 105.308 79.7612 104.828 79.7312C104.358 79.7012 104.428 77.9412 104.368 77.1812C104.318 76.4112 104.708 75.7812 104.878 75.7812C105.048 75.7812 104.858 77.3612 104.878 77.7212C104.878 78.0812 105.078 78.8012 105.308 79.3112L105.798 79.6812L106.898 80.5212C108.468 80.0512 110.578 80.4112 110.498 80.7412C110.408 81.0612 111.658 81.1412 111.738 80.6212C111.808 80.1112 111.868 80.6412 111.868 81.0012C111.868 81.3612 110.838 82.7612 110.668 83.4112C110.498 84.0512 106.868 83.6112 105.308 83.5012C103.748 83.3812 101.438 83.9112 101.258 84.3812C101.088 84.8512 98.6477 83.3112 97.5277 82.8412C96.4077 82.3612 95.5277 80.6612 95.2977 80.4412C95.0677 80.2112 95.4877 79.6712 95.3877 79.3312C95.2777 78.9912 92.7277 78.9212 91.9877 79.2012C91.2477 79.4712 87.4177 79.8812 86.5077 80.2712C85.6077 80.6812 84.2377 80.2512 83.8177 80.1712C83.3977 80.1012 82.3777 81.3412 81.8677 81.5712C81.3477 81.8012 80.6977 83.5612 80.4177 85.5112L79.7177 86.8612L79.2677 87.7312C77.9977 88.6912 76.6077 91.9012 76.1977 92.5412C75.7877 93.1812 75.4677 97.8012 75.4677 99.3512C75.4677 100.901 76.8177 104.191 77.2077 105.101C77.5877 106.011 79.9377 108.011 80.7177 108.501C81.5077 108.971 84.0477 109.031 84.8777 109.031C85.7077 109.031 86.6577 108.231 86.9877 107.271L88.2077 107.391L88.7677 107.451C88.7977 108.131 90.5977 108.681 91.0477 108.921C91.4877 109.161 92.6777 108.981 93.0277 108.881C93.3877 108.781 93.7777 111.971 93.5177 112.891C93.2677 113.811 94.1477 117.041 94.4077 118.021C94.6677 118.991 95.7777 121.651 95.8877 122.611C95.9877 123.571 95.2377 126.741 95.1077 127.851C94.9877 128.971 96.4977 132.081 96.8977 133.151C97.2877 134.221 97.6077 136.521 97.6077 137.051C97.6077 137.581 99.2677 140.811 99.6377 142.131C100.018 143.461 104.168 143.781 105.278 143.131V143.101ZM176.868 103.671C176.978 103.911 178.018 103.081 178.648 102.981C179.278 102.881 179.668 101.201 179.178 101.081C178.678 100.941 178.058 99.6612 177.708 99.5012C177.358 99.3412 176.668 100.061 176.698 100.561C176.728 101.071 175.558 101.281 175.338 101.701C175.118 102.121 175.138 102.431 175.378 102.381C175.608 102.341 176.768 103.421 176.868 103.651V103.671ZM175.588 112.791C175.898 112.671 175.548 111.021 174.908 110.881C174.258 110.751 172.458 113.071 172.798 114.401C173.138 115.731 173.518 115.651 173.708 115.371C173.898 115.091 174.968 115.551 175.288 115.661C175.598 115.761 175.598 115.441 175.288 114.951C174.968 114.451 175.288 112.911 175.598 112.791H175.588ZM172.038 111.171C172.108 110.581 172.228 108.721 172.328 108.361C172.428 107.991 171.318 106.931 170.768 106.741C170.228 106.551 168.468 110.351 167.218 111.021C165.958 111.701 165.508 114.001 165.828 114.541C166.158 115.071 168.788 115.361 169.248 115.761C169.708 116.161 170.218 115.701 170.488 115.631C170.768 115.561 170.678 115.391 170.578 115.321C170.468 115.261 171.488 114.181 171.638 113.491C171.778 112.811 171.958 111.771 172.028 111.181L172.038 111.171ZM164.908 117.491C163.918 117.121 162.768 117.701 162.678 118.081C162.578 118.461 166.468 119.081 167.758 119.431C169.038 119.781 169.838 119.891 169.548 119.681C169.258 119.461 165.888 117.871 164.908 117.501V117.491ZM172.788 92.2212C173.098 91.7912 172.358 89.7612 171.978 90.2212C171.608 90.6812 171.878 91.8612 171.998 92.2812C172.118 92.6912 172.478 92.6612 172.788 92.2212ZM175.128 96.5812C175.348 96.0612 174.848 95.4812 174.008 95.3012C173.168 95.1312 173.288 97.6512 173.658 97.9812C174.018 98.2912 174.888 97.1112 175.128 96.5812ZM179.498 112.241C180.508 112.951 182.748 112.621 182.818 111.261C181.828 110.611 179.408 110.721 179.498 112.241ZM178.958 81.2512C178.538 81.5412 178.318 82.2912 178.448 82.5912C178.388 82.5912 178.338 82.5912 178.278 82.5912C177.948 82.5912 177.908 83.9112 178.258 84.1412C178.598 84.3712 179.448 83.1112 179.898 82.8112C180.338 82.5112 181.228 82.3312 181.358 82.4212C181.498 82.5212 182.278 82.2812 183.098 81.9012C183.248 81.8312 183.408 81.6112 183.588 81.3112C183.388 80.3412 183.158 79.3912 182.928 78.4312C182.508 78.7412 182.038 79.0712 181.818 79.2712C181.378 79.6712 179.508 80.8912 178.958 81.2612V81.2512ZM155.998 107.911C155.998 107.911 155.998 107.911 156.008 107.911C155.828 107.781 155.808 107.771 155.998 107.911ZM162.258 113.741C161.898 112.921 160.688 111.531 159.588 110.651L159.168 109.961L158.708 109.201C158.298 108.361 157.048 107.721 156.938 107.481C156.828 107.241 156.438 108.201 156.008 107.921C156.228 108.071 156.688 108.401 157.348 108.871C158.518 109.711 160.768 115.361 161.278 115.761C161.788 116.161 162.618 114.571 162.258 113.741ZM144.328 104.601C144.018 105.241 145.988 106.601 146.148 106.291C146.308 105.981 145.898 104.411 145.538 104.061C145.188 103.721 144.648 103.961 144.328 104.601ZM118.088 134.811C118.168 135.481 119.528 136.011 119.918 135.901C120.328 135.791 121.428 133.761 121.578 133.171C121.738 132.581 121.858 131.321 121.858 131.021C121.858 130.721 122.038 130.051 122.188 129.961C122.338 129.881 122.588 129.191 122.738 128.431C122.888 127.661 121.918 124.091 121.888 123.471C121.868 122.841 121.158 123.791 120.978 124.431C120.788 125.061 119.018 126.361 118.618 126.891C118.228 127.431 117.788 129.251 117.948 129.571C118.098 129.881 117.788 131.131 117.608 131.471C117.438 131.821 118.008 134.121 118.078 134.801L118.088 134.811ZM54.0677 159.501H55.2577C55.4677 158.211 53.9977 158.421 54.0677 159.501ZM85.8777 25.1512C85.3777 25.2112 84.0877 24.9512 83.8577 24.7112C83.6377 24.4712 81.6977 24.2612 81.1377 24.5012C80.5777 24.7412 80.9577 23.1312 81.7377 22.9612C82.5177 22.7812 81.8577 21.6812 81.0277 21.6812C80.1977 21.6812 78.1477 21.3712 77.6677 21.4812C77.1877 21.5812 76.2477 21.1412 75.9077 21.0912C75.5677 21.0412 73.1077 21.8312 71.9477 21.7712C70.7777 21.7212 67.9277 21.8412 67.3077 22.0112C66.6777 22.1712 66.2277 23.3912 66.3177 23.8112C66.4077 24.2412 63.5577 24.2312 62.6577 24.2512C61.7577 24.2612 56.9677 25.2812 55.7177 25.9712C54.4677 26.6612 53.4877 28.4112 53.9077 28.4512C54.3177 28.4812 53.2177 29.4812 52.5377 29.7112C51.8677 29.9412 50.2677 30.0412 49.8877 30.4212C49.5177 30.8012 50.2877 31.0612 50.4377 31.3112C50.5877 31.5612 51.0277 31.0912 51.4577 31.3312C51.8777 31.5712 53.2677 31.6812 53.6377 31.8212C54.0077 31.9712 52.4577 32.2612 51.7277 32.3212C50.9977 32.3712 51.1577 33.8112 51.7577 34.0012C52.3577 34.2012 53.8877 34.4112 54.0477 34.1712C54.2077 33.9212 55.8677 34.4412 56.6277 34.5312C57.3677 34.6112 57.9477 36.4912 58.1777 36.9012C58.4077 37.3112 58.4577 38.7412 58.3977 39.1512C58.3477 39.5612 59.7277 40.3212 59.9777 40.0612C60.2177 39.8012 60.1477 40.7112 59.5977 40.6612C59.0477 40.6112 59.4077 42.2012 60.0877 42.4312C60.7677 42.6612 60.2977 43.6412 59.9077 43.9412C59.5077 44.2312 59.7277 45.1712 59.3177 45.5112C58.9177 45.8412 60.7477 49.0112 60.7377 50.6412C60.7277 52.2712 61.7477 53.6012 62.1277 53.6012C62.5077 53.6012 63.8577 53.9312 64.0377 54.2812C64.2177 54.6312 64.8577 54.0412 65.1177 53.7712C65.3677 53.5112 65.9177 52.7212 66.3277 52.0312C66.7377 51.3412 67.6577 48.0712 67.7777 47.7212C67.8977 47.3712 69.4377 47.5912 69.7877 47.4112C70.1377 47.2312 71.1377 46.4412 71.4277 46.2012C71.7177 45.9612 73.8977 45.0412 74.5077 44.6112C75.0977 44.1812 76.0977 42.3312 76.5577 41.9312C77.0277 41.5312 76.3177 41.6512 75.7377 41.2712C75.1577 40.8912 75.4177 40.4212 75.5877 40.2512C75.7577 40.0712 77.5177 40.5412 78.1277 40.7812C78.7377 41.0212 79.8977 40.1812 79.4577 39.8612C79.0077 39.5412 79.2477 39.5512 79.4577 39.6812C79.6677 39.8112 79.8977 38.6112 79.6677 38.3812C79.4277 38.1512 81.4477 36.6812 81.0977 35.2812C80.7477 33.8912 81.6477 32.4612 82.1877 32.4412C82.7377 32.4312 82.5677 30.8712 81.9277 30.7212C81.2777 30.5812 81.8877 30.4312 82.1377 30.2112C82.3777 29.9912 82.6877 28.6012 82.5477 28.3412C82.3977 28.0712 83.5377 27.7712 83.7377 27.4512C83.9477 27.1412 85.2377 26.5112 85.7077 26.4112C86.1677 26.3012 86.4077 25.0912 85.9177 25.1412L85.8777 25.1512ZM97.1877 26.2812C96.5677 26.0712 95.3177 26.7612 95.4677 27.1412C95.6377 27.5312 94.4477 26.6412 93.6177 27.0712C92.7877 27.5012 92.5677 28.9512 92.9477 29.1412C93.3277 29.3312 93.6077 30.4812 93.6077 30.7012C93.6177 30.9312 95.2177 30.7612 95.6277 30.4312C96.0277 30.0912 95.9777 31.6012 95.5777 32.0012C95.1777 32.4112 95.7177 33.2212 96.1677 33.2912C96.6077 33.3512 97.2177 34.4012 97.6777 34.3912C98.1277 34.3912 98.9077 32.6312 99.0877 31.9712C99.2677 31.3212 100.778 31.8312 101.478 32.0412C102.168 32.2412 102.428 29.6212 101.678 29.2212C100.928 28.8312 99.9877 29.0212 99.6677 28.7212C99.3577 28.4212 98.8277 28.1412 98.4777 28.0912C98.1277 28.0412 97.7977 26.4912 97.1877 26.2812ZM103.258 27.5412C104.478 27.7112 105.858 26.7112 106.158 26.4212C106.458 26.1412 102.768 25.3812 101.358 25.3412C99.9477 25.3012 98.8177 25.4912 98.8377 25.7712C98.8577 26.0412 102.028 27.3712 103.258 27.5512V27.5412ZM80.8977 60.6812C80.5777 60.5412 80.3977 61.7612 80.4677 62.2212C80.5477 62.6812 81.6677 62.6412 82.1577 62.5612C82.6377 62.4812 83.0077 62.0912 82.9877 61.6912C82.9577 61.2912 82.2777 59.4912 82.0077 59.4912C81.7377 59.4912 81.2177 60.8212 80.8877 60.6912L80.8977 60.6812ZM84.5277 46.5812C84.2777 46.1312 82.3577 46.1912 81.8877 46.1612C81.4277 46.1312 79.9877 45.6612 79.7077 45.3512C79.4477 45.0512 79.2277 46.5312 78.7977 46.7312C78.3577 46.9212 79.0177 47.2012 79.1977 47.0512C79.3777 46.8912 79.1877 47.8212 78.9877 48.1312C78.7877 48.4512 80.2677 48.6712 80.4377 49.1512C80.5977 49.6312 81.2077 49.9412 81.7877 49.8512C82.3677 49.7512 83.5277 49.1512 83.9277 49.1112C84.3377 49.0712 84.7877 47.0212 84.5277 46.5812ZM124.888 35.5712C125.548 34.9112 128.268 34.0112 128.578 33.3312C128.878 32.6512 128.388 32.0912 128.108 32.0912C127.828 32.0912 127.488 32.4312 127.428 32.5412C127.358 32.6612 124.238 33.3912 123.288 33.8512C122.318 34.3112 121.218 35.0212 120.818 35.4312C120.418 35.8412 119.758 38.9312 119.518 39.2812C119.288 39.6312 120.558 40.8912 121.118 41.2412C121.678 41.5812 122.448 41.4012 122.668 41.3412C122.878 41.2712 122.378 39.1112 122.088 38.3612C121.788 37.6112 124.228 36.2512 124.878 35.5812L124.888 35.5712ZM121.548 27.5212C122.578 28.5412 123.138 27.0712 124.268 27.2112C124.248 25.1412 121.448 25.8512 121.548 27.5212ZM141.498 27.9112C141.468 28.2912 144.338 28.6012 145.178 28.4512C146.018 28.3112 144.998 27.0012 143.778 27.0812C142.558 27.1612 141.538 27.5412 141.508 27.9212L141.498 27.9112ZM37.5977 49.1912C37.2977 49.4712 37.5577 50.8812 38.1377 50.9212C38.7077 50.9612 39.6277 48.8012 40.3277 49.2312C41.0277 49.6612 41.5077 49.8412 41.3877 49.6012C41.2677 49.3712 39.2677 48.5012 39.0177 48.3312C38.7677 48.1812 37.8977 48.9112 37.5877 49.1812L37.5977 49.1912ZM44.9377 96.8412C44.9377 97.0812 46.1877 97.0412 46.3977 96.6612C46.5977 96.2812 46.4877 95.9612 46.1577 95.9612C45.8277 95.9612 44.9477 96.6012 44.9477 96.8412H44.9377ZM39.3677 94.7812C39.9677 94.6712 39.6877 95.6412 39.8277 95.9812C39.9777 96.3312 41.4077 96.6112 41.6977 96.8412C41.9877 97.0712 42.7277 96.4012 43.2977 96.4712C43.8677 96.5412 43.1077 94.4812 42.1377 94.5412C41.1777 94.6012 40.4177 93.6712 40.1877 93.5512C39.9477 93.4512 38.8477 92.7712 38.5177 92.5112C38.2077 92.2512 35.7477 92.0312 34.9177 92.0312C34.0877 92.0312 33.1677 92.8812 33.0377 93.1612C32.8977 93.4412 34.3577 93.6312 34.7677 93.4112C35.1877 93.1912 37.1277 93.6612 37.5277 94.1212C37.9277 94.5812 38.7477 94.8712 39.3577 94.7612L39.3677 94.7812ZM36.7477 96.8412C36.7477 97.0812 38.0077 96.9312 38.3077 96.9412C38.6177 96.9412 38.6077 96.7412 38.2877 96.4812C37.9677 96.2312 36.7477 96.6012 36.7477 96.8412ZM37.6377 90.3412C37.3077 90.2112 37.0477 90.7312 37.0477 90.9712C37.0477 91.2112 37.2277 91.4112 37.4477 91.4112C37.6677 91.4112 37.9677 90.4712 37.6377 90.3312V90.3412ZM40.2877 90.5412C40.1777 90.3012 39.6377 90.1012 39.4777 90.1012C39.3177 90.1012 39.1977 90.5212 39.2277 91.0312C39.2577 91.5412 40.3977 90.7812 40.2977 90.5412H40.2877ZM42.1977 93.4812C42.7077 93.2312 42.7677 92.6212 42.4677 92.6612C42.1677 92.6912 41.6077 91.7812 41.2777 91.6512C40.9477 91.5212 40.6777 92.2012 40.6777 92.4912C40.6777 92.7812 40.8677 92.9912 41.0877 92.9312C41.3177 92.8812 41.6777 93.7212 42.1977 93.4812ZM183.278 113.321C183.018 113.461 181.738 113.611 181.578 113.361C181.408 113.111 181.158 113.881 180.888 114.001C180.618 114.121 180.768 114.791 181.168 114.581C181.458 114.441 182.658 115.111 183.638 115.721C183.838 114.751 183.998 113.771 184.168 112.781C183.818 112.971 183.448 113.221 183.288 113.311L183.278 113.321Z" fill="url(#paint16_radial_30_94)"/>
<path opacity="0.5" d="M163.448 67.6712C163.448 97.9612 134.238 122.511 98.2078 122.511C62.1778 122.511 32.9678 97.9612 32.9678 67.6712C32.9678 37.3812 62.1778 12.8312 98.2078 12.8312C134.238 12.8312 163.448 37.3812 163.448 67.6712Z" fill="#E1ECF5"/>
<path opacity="0.6" d="M120.538 14.3512C119.108 13.7812 117.628 13.3212 116.108 12.9812C102.658 9.98119 88.3177 16.8712 76.0177 30.4412C63.8977 43.8112 53.6977 63.7112 48.3077 86.9812C48.3077 87.0112 48.2877 87.0412 48.2877 87.0812C42.9177 110.341 43.3477 132.621 48.3977 149.821C53.0277 165.581 61.5377 177.141 73.0477 181.451C61.8477 176.971 53.5477 165.541 48.9977 150.051C43.9477 132.851 43.5077 110.571 48.8777 87.3112C48.8777 87.2812 48.8877 87.2512 48.8977 87.2112C54.2877 63.9412 64.4777 44.0412 76.6077 30.6712C88.9177 17.1012 103.248 10.2012 116.698 13.2112C118.008 13.5012 119.288 13.8912 120.528 14.3512H120.538Z" fill="white"/>
<path opacity="0.6" d="M14.3378 121.821C14.3878 123.351 14.5578 124.881 14.8578 126.411C17.4778 139.891 29.4978 150.231 46.7978 156.061C63.8478 161.801 86.0878 163.161 109.488 158.801C109.518 158.801 109.548 158.791 109.588 158.781C132.978 154.411 153.138 145.121 166.838 133.641C179.378 123.131 186.538 110.741 185.888 98.5112C186.258 110.531 179.138 122.671 166.808 133.001C153.108 144.481 132.948 153.761 109.558 158.141C109.528 158.141 109.498 158.151 109.458 158.161C86.0578 162.521 63.8178 161.161 46.7678 155.421C29.4678 149.601 17.4478 139.261 14.8178 125.771C14.5678 124.461 14.4078 123.141 14.3278 121.821H14.3378Z" fill="white"/>
<path opacity="0.6" d="M45.9477 29.5012C44.5677 30.1812 43.2377 30.9812 41.9677 31.8912C30.7577 39.9012 26.3277 55.1812 28.2277 73.4012C30.0977 91.3512 38.1177 112.221 51.8477 131.761C51.8677 131.791 51.8877 131.811 51.9077 131.841C65.6477 151.361 82.5277 165.901 98.7077 173.611C113.538 180.681 127.818 182.051 138.708 176.361C127.898 181.711 113.848 180.271 99.2877 173.321C83.1077 165.601 66.2277 151.071 52.4877 131.551C52.4677 131.521 52.4477 131.501 52.4277 131.471C38.6977 111.931 30.6677 91.0612 28.8077 73.1112C26.9077 54.8912 31.3377 39.6212 42.5477 31.6012C43.6377 30.8212 44.7777 30.1212 45.9577 29.5112L45.9477 29.5012Z" fill="white"/>
<g opacity="0.5">
<path d="M51.7377 85.3912C46.3977 85.3912 42.0577 81.0512 42.0577 75.7112C42.0577 70.3712 46.3977 66.0312 51.7377 66.0312C57.0777 66.0312 61.4177 70.3712 61.4177 75.7112C61.4177 81.0512 57.0777 85.3912 51.7377 85.3912ZM51.7377 66.1212C46.4477 66.1212 42.1477 70.4212 42.1477 75.7112C42.1477 81.0012 46.4477 85.3012 51.7377 85.3012C57.0277 85.3012 61.3277 81.0012 61.3277 75.7112C61.3277 70.4212 57.0277 66.1212 51.7377 66.1212Z" fill="white"/>
<path d="M51.7377 91.0112C43.2977 91.0112 36.4377 84.1412 36.4377 75.7112C36.4377 67.2812 43.2977 60.4112 51.7377 60.4112C60.1777 60.4112 67.0377 67.2812 67.0377 75.7112C67.0377 84.1412 60.1677 91.0112 51.7377 91.0112ZM51.7377 60.5512C43.3777 60.5512 36.5777 67.3512 36.5777 75.7112C36.5777 84.0712 43.3777 90.8712 51.7377 90.8712C60.0977 90.8712 66.8977 84.0712 66.8977 75.7112C66.8977 67.3512 60.0977 60.5512 51.7377 60.5512Z" fill="white"/>
<path d="M51.7378 80.5012C49.0978 80.5012 46.9478 78.3512 46.9478 75.7112C46.9478 73.0712 49.0978 70.9312 51.7378 70.9312C54.3778 70.9312 56.5178 73.0812 56.5178 75.7112C56.5178 78.3412 54.3678 80.5012 51.7378 80.5012ZM51.7378 71.0112C49.1378 71.0112 47.0278 73.1212 47.0278 75.7212C47.0278 78.3212 49.1378 80.4312 51.7378 80.4312C54.3378 80.4312 56.4478 78.3212 56.4478 75.7212C56.4478 73.1212 54.3378 71.0112 51.7378 71.0112Z" fill="white"/>
</g>
<g opacity="0.5">
<path d="M156.668 97.7312C151.808 97.7312 147.858 93.7812 147.858 88.9212C147.858 84.0612 151.808 80.1112 156.668 80.1112C161.528 80.1112 165.478 84.0612 165.478 88.9212C165.478 93.7812 161.528 97.7312 156.668 97.7312ZM156.668 80.2012C151.858 80.2012 147.948 84.1112 147.948 88.9212C147.948 93.7312 151.858 97.6412 156.668 97.6412C161.478 97.6412 165.388 93.7312 165.388 88.9212C165.388 84.1112 161.478 80.2012 156.668 80.2012Z" fill="white"/>
<path d="M156.668 101.961C149.478 101.961 143.638 96.1112 143.638 88.9312C143.638 81.7512 149.488 75.9012 156.668 75.9012C163.848 75.9012 169.698 81.7512 169.698 88.9312C169.698 96.1112 163.848 101.961 156.668 101.961ZM156.668 76.0212C149.548 76.0212 143.758 81.8112 143.758 88.9312C143.758 96.0512 149.548 101.841 156.668 101.841C163.788 101.841 169.578 96.0512 169.578 88.9312C169.578 81.8112 163.788 76.0212 156.668 76.0212Z" fill="white"/>
<path d="M156.668 94.2112C153.758 94.2112 151.388 91.8412 151.388 88.9312C151.388 86.0212 153.758 83.6512 156.668 83.6512C159.578 83.6512 161.948 86.0212 161.948 88.9312C161.948 91.8412 159.578 94.2112 156.668 94.2112ZM156.668 83.7312C153.798 83.7312 151.468 86.0612 151.468 88.9312C151.468 91.8012 153.798 94.1312 156.668 94.1312C159.538 94.1312 161.868 91.8012 161.868 88.9312C161.868 86.0612 159.538 83.7312 156.668 83.7312Z" fill="white"/>
</g>
<g opacity="0.5">
<path d="M144.278 153.271C140.568 153.271 137.548 150.251 137.548 146.541C137.548 142.831 140.568 139.811 144.278 139.811C147.988 139.811 151.008 142.831 151.008 146.541C151.008 150.251 147.988 153.271 144.278 153.271ZM144.278 139.871C140.598 139.871 137.608 142.861 137.608 146.541C137.608 150.221 140.598 153.211 144.278 153.211C147.958 153.211 150.948 150.221 150.948 146.541C150.948 142.861 147.958 139.871 144.278 139.871Z" fill="white"/>
<path d="M144.278 150.581C142.048 150.581 140.238 148.771 140.238 146.541C140.238 144.311 142.048 142.501 144.278 142.501C146.508 142.501 148.318 144.311 148.318 146.541C148.318 148.771 146.508 150.581 144.278 150.581ZM144.278 142.571C142.088 142.571 140.308 144.351 140.308 146.541C140.308 148.731 142.088 150.511 144.278 150.511C146.468 150.511 148.248 148.731 148.248 146.541C148.248 144.351 146.468 142.571 144.278 142.571Z" fill="white"/>
</g>
<g opacity="0.5">
<path d="M79.6378 170.811C74.4378 170.811 70.2078 166.581 70.2078 161.381C70.2078 156.181 74.4378 151.951 79.6378 151.951C84.8378 151.951 89.0678 156.181 89.0678 161.381C89.0678 166.581 84.8378 170.811 79.6378 170.811ZM79.6378 152.041C74.4878 152.041 70.2978 156.231 70.2978 161.381C70.2978 166.531 74.4878 170.721 79.6378 170.721C84.7878 170.721 88.9778 166.531 88.9778 161.381C88.9778 156.231 84.7878 152.041 79.6378 152.041Z" fill="white"/>
<path d="M79.6378 167.031C76.5178 167.031 73.9778 164.491 73.9778 161.371C73.9778 158.251 76.5178 155.711 79.6378 155.711C82.7578 155.711 85.2978 158.251 85.2978 161.371C85.2978 164.491 82.7578 167.031 79.6378 167.031ZM79.6378 155.801C76.5678 155.801 74.0678 158.301 74.0678 161.371C74.0678 164.441 76.5678 166.941 79.6378 166.941C82.7078 166.941 85.2078 164.441 85.2078 161.371C85.2078 158.301 82.7078 155.801 79.6378 155.801Z" fill="white"/>
</g>
<path opacity="0.6" d="M149.378 31.3712C142.778 12.4712 132.608 1.38118 120.748 0.14118C112.038 -0.76882 103.438 2.67118 95.1877 11.8912C95.5177 11.8712 95.8477 11.8612 96.1877 11.8412C104.148 3.15118 112.358 -0.00881976 120.668 0.86118C132.238 2.07118 142.188 12.9912 148.688 31.6212C155.348 50.6812 157.518 75.3712 154.788 101.151C152.058 126.921 144.778 150.631 134.268 167.891C124.008 184.761 111.988 193.391 100.418 192.181C95.0477 191.621 89.9777 188.901 85.4377 184.251C84.9977 184.191 84.6077 184.131 84.2777 184.081C89.0977 189.261 94.5477 192.291 100.348 192.891C101.088 192.971 101.828 193.011 102.568 193.011C113.728 193.011 125.118 184.321 134.888 168.261C145.448 150.901 152.768 127.101 155.508 101.221C158.248 75.3512 156.068 50.5412 149.378 31.3912V31.3712Z" fill="white"/>
<path opacity="0.6" d="M167.808 17.2512C158.798 8.24117 142.678 7.30117 122.438 14.6012C122.148 14.7012 121.858 14.8212 121.568 14.9312C121.978 15.0512 122.408 15.1812 122.808 15.2912C142.698 8.13117 158.488 9.02117 167.258 17.7912C176.048 26.5812 176.928 42.4012 169.718 62.3512C162.348 82.7612 147.438 104.861 127.728 124.571C108.018 144.281 85.9178 159.191 65.5078 166.561C45.5678 173.761 29.7378 172.881 20.9478 164.091C13.2278 156.371 11.6178 142.931 16.3578 126.121C16.2578 125.811 16.0578 125.211 15.9378 124.821C10.7278 142.421 12.3078 156.551 20.3978 164.641C25.3978 169.641 32.5878 172.161 41.4578 172.161C48.5678 172.161 56.7578 170.541 65.7678 167.291C86.2878 159.881 108.478 144.911 128.268 125.121L128.288 125.091C148.068 105.311 163.028 83.1212 170.438 62.6112C177.748 42.3712 176.808 26.2612 167.788 17.2412L167.808 17.2512Z" fill="white"/>
<path opacity="0.6" d="M162.408 91.3712C145.308 81.7112 122.048 75.3412 96.9177 73.4412H96.8577C71.7477 71.5512 47.8177 74.3512 29.4777 81.3312C11.3677 88.2312 0.917745 98.3312 0.0577447 109.781C-0.772255 120.801 7.36775 131.921 23.0277 141.241L22.3677 140.031C7.60775 130.981 -0.0422553 120.341 0.747745 109.831C1.58774 98.6712 11.8777 88.7812 29.7277 81.9912C47.9877 75.0412 71.8377 72.2512 96.8677 74.1412H96.9277C121.938 76.0412 145.068 82.3712 162.068 91.9812C178.698 101.371 187.388 112.691 186.538 123.861C185.958 131.531 181.088 138.671 171.978 144.631C171.728 145.021 171.368 145.551 171.038 146.051C173.438 144.571 175.358 143.021 177.248 141.401C183.338 136.171 186.748 130.231 187.228 123.921C188.098 112.471 179.278 100.921 162.398 91.3812L162.408 91.3712Z" fill="white"/>
<path style="mix-blend-mode:screen" d="M78.7177 167.911C75.3377 167.401 73.0077 164.241 73.5177 160.861C74.0277 157.481 77.1777 155.151 80.5577 155.661C83.9377 156.171 86.2677 159.331 85.7577 162.711C85.2477 166.091 82.0877 168.421 78.7077 167.911H78.7177Z" fill="url(#paint17_radial_30_94)"/>
<path style="mix-blend-mode:screen" d="M13.1577 141.061C9.77774 140.551 7.44774 137.391 7.95774 134.011C8.46774 130.631 11.6177 128.301 14.9977 128.811C18.3777 129.321 20.7077 132.481 20.2077 135.861C19.6977 139.241 16.5377 141.571 13.1577 141.061Z" fill="url(#paint18_radial_30_94)"/>
<path style="mix-blend-mode:screen" d="M155.738 95.0512C152.358 94.5412 150.028 91.3812 150.538 88.0012C151.048 84.6212 154.198 82.2912 157.578 82.8012C160.958 83.3112 163.288 86.4712 162.788 89.8512C162.278 93.2312 159.118 95.5612 155.738 95.0512Z" fill="url(#paint19_radial_30_94)"/>
<path style="mix-blend-mode:screen" d="M137.158 17.0812C133.778 16.5712 131.448 13.4112 131.958 10.0312C132.468 6.65118 135.618 4.32118 138.998 4.83118C142.378 5.34118 144.708 8.50118 144.208 11.8812C143.698 15.2612 140.538 17.5912 137.158 17.0812Z" fill="url(#paint20_radial_30_94)"/>
<path style="mix-blend-mode:screen" d="M50.4378 81.8412C47.0578 81.3312 44.7278 78.1712 45.2378 74.7912C45.7478 71.4112 48.8978 69.0812 52.2778 69.5912C55.6578 70.1012 57.9878 73.2612 57.4878 76.6412C56.9778 80.0212 53.8178 82.3512 50.4378 81.8412Z" fill="url(#paint21_radial_30_94)"/>
<path style="mix-blend-mode:screen" d="M182.968 117.001C179.588 116.491 177.258 113.331 177.768 109.951C178.278 106.571 181.428 104.241 184.808 104.751C188.188 105.261 190.518 108.421 190.018 111.801C189.508 115.181 186.348 117.511 182.968 117.001Z" fill="url(#paint22_radial_30_94)"/>
<path style="mix-blend-mode:screen" d="M77.5577 30.5312C75.3777 30.2012 73.8877 28.1712 74.2077 25.9912C74.5377 23.8112 76.5677 22.3112 78.7377 22.6412C80.9177 22.9712 82.4177 25.0012 82.0877 27.1812C81.7577 29.3612 79.7277 30.8612 77.5477 30.5312H77.5577Z" fill="url(#paint23_radial_30_94)"/>
<path style="mix-blend-mode:screen" d="M29.2178 85.8512C27.0378 85.5212 25.5478 83.4912 25.8678 81.3112C26.1978 79.1312 28.2278 77.6312 30.3978 77.9612C32.5778 78.2912 34.0778 80.3212 33.7478 82.5012C33.4178 84.6812 31.3878 86.1812 29.2078 85.8512H29.2178Z" fill="url(#paint24_radial_30_94)"/>
<path style="mix-blend-mode:screen" d="M56.1677 173.711C53.9877 173.381 52.4977 171.351 52.8177 169.171C53.1477 166.991 55.1777 165.491 57.3477 165.821C59.5277 166.151 61.0277 168.181 60.6977 170.361C60.3677 172.541 58.3377 174.041 56.1577 173.711H56.1677Z" fill="url(#paint25_radial_30_94)"/>
<path style="mix-blend-mode:screen" d="M143.968 153.061C140.588 152.551 138.258 149.391 138.768 146.011C139.278 142.631 142.428 140.301 145.808 140.811C149.188 141.321 151.518 144.481 151.018 147.861C150.508 151.241 147.348 153.571 143.968 153.061Z" fill="url(#paint26_radial_30_94)"/>
<defs>
<radialGradient id="paint0_radial_30_94" cx="0" cy="0" r="1" gradientUnits="userSpaceOnUse" gradientTransform="translate(98.2569 201.323) rotate(0.09) scale(62.7311 97.5127)">
<stop stop-color="#9BCEE8"/>
<stop offset="0.71" stop-color="#29A2D9"/>
<stop offset="1" stop-color="#2170B5"/>
</radialGradient>
<radialGradient id="paint1_radial_30_94" cx="0" cy="0" r="1" gradientUnits="userSpaceOnUse" gradientTransform="translate(98.4285 200.757) rotate(0.0799999) scale(60.1354 91.0961)">
<stop stop-color="#91C1DE"/>
<stop offset="0.71" stop-color="#2799D0"/>
<stop offset="1" stop-color="#226BAF"/>
</radialGradient>
<radialGradient id="paint2_radial_30_94" cx="0" cy="0" r="1" gradientUnits="userSpaceOnUse" gradientTransform="translate(98.5177 200.218) rotate(0.08) scale(57.5498 84.9002)">
<stop stop-color="#88B5D4"/>
<stop offset="0.71" stop-color="#2591C7"/>
<stop offset="1" stop-color="#2466A9"/>
</radialGradient>
<radialGradient id="paint3_radial_30_94" cx="0" cy="0" r="1" gradientUnits="userSpaceOnUse" gradientTransform="translate(98.6816 199.684) rotate(0.0699999) scale(54.9541 78.8944)">
<stop stop-color="#7EA9CB"/>
<stop offset="0.71" stop-color="#2488BF"/>
<stop offset="1" stop-color="#2562A3"/>
</radialGradient>
<radialGradient id="paint4_radial_30_94" cx="0" cy="0" r="1" gradientUnits="userSpaceOnUse" gradientTransform="translate(97.7609 201.69) rotate(0.0699999) scale(51.84 73.6127)">
<stop stop-color="#749DC1"/>
<stop offset="0.71" stop-color="#2480B6"/>
<stop offset="1" stop-color="#255D9E"/>
</radialGradient>
<radialGradient id="paint5_radial_30_94" cx="0" cy="0" r="1" gradientUnits="userSpaceOnUse" gradientTransform="translate(97.9087 201.137) rotate(0.06) scale(49.26 67.9788)">
<stop stop-color="#6B91B8"/>
<stop offset="0.71" stop-color="#2478AE"/>
<stop offset="1" stop-color="#265998"/>
</radialGradient>
<radialGradient id="paint6_radial_30_94" cx="0" cy="0" r="1" gradientUnits="userSpaceOnUse" gradientTransform="translate(98.0714 200.597) rotate(0.0499999) scale(46.69 62.5645)">
<stop stop-color="#6285AF"/>
<stop offset="0.71" stop-color="#2570A6"/>
<stop offset="1" stop-color="#275493"/>
</radialGradient>
<radialGradient id="paint7_radial_30_94" cx="0" cy="0" r="1" gradientUnits="userSpaceOnUse" gradientTransform="translate(98.1542 200.099) rotate(0.05) scale(44.11 57.343)">
<stop stop-color="#5A7AA6"/>
<stop offset="0.71" stop-color="#25689E"/>
<stop offset="1" stop-color="#28508D"/>
</radialGradient>
<radialGradient id="paint8_radial_30_94" cx="0" cy="0" r="1" gradientUnits="userSpaceOnUse" gradientTransform="translate(98.2892 199.617) rotate(0.0399999) scale(41.53 52.3277)">
<stop stop-color="#526F9D"/>
<stop offset="0.71" stop-color="#266096"/>
<stop offset="1" stop-color="#284B88"/>
</radialGradient>
<radialGradient id="paint9_radial_30_94" cx="0" cy="0" r="1" gradientUnits="userSpaceOnUse" gradientTransform="translate(98.3678 201.483) rotate(0.04) scale(38.94 47.8962)">
<stop stop-color="#4B6594"/>
<stop offset="0.71" stop-color="#27598F"/>
<stop offset="1" stop-color="#284783"/>
</radialGradient>
<radialGradient id="paint10_radial_30_94" cx="0" cy="0" r="1" gradientUnits="userSpaceOnUse" gradientTransform="translate(98.4954 200.977) rotate(0.03) scale(36.35 43.2565)">
<stop stop-color="#445B8C"/>
<stop offset="0.71" stop-color="#285288"/>
<stop offset="1" stop-color="#29437F"/>
</radialGradient>
<radialGradient id="paint11_radial_30_94" cx="0" cy="0" r="1" gradientUnits="userSpaceOnUse" gradientTransform="translate(98.618 200.497) rotate(0.02) scale(33.76 38.824)">
<stop stop-color="#3E5184"/>
<stop offset="0.71" stop-color="#284B81"/>
<stop offset="1" stop-color="#293F7A"/>
</radialGradient>
<radialGradient id="paint12_radial_30_94" cx="0" cy="0" r="1" gradientUnits="userSpaceOnUse" gradientTransform="translate(98.7031 200.051) rotate(0.02) scale(31.17 34.5987)">
<stop stop-color="#38487D"/>
<stop offset="0.71" stop-color="#29447B"/>
<stop offset="1" stop-color="#293B75"/>
</radialGradient>
<radialGradient id="paint13_radial_30_94" cx="0" cy="0" r="1" gradientUnits="userSpaceOnUse" gradientTransform="translate(98.8176 201.762) scale(28.57 30.8556)">
<stop stop-color="#324075"/>
<stop offset="0.71" stop-color="#293D74"/>
<stop offset="1" stop-color="#283771"/>
</radialGradient>
<radialGradient id="paint14_radial_30_94" cx="0" cy="0" r="1" gradientUnits="userSpaceOnUse" gradientTransform="translate(98.9177 201.288) scale(25.97 27.0088)">
<stop stop-color="#2D386F"/>
<stop offset="0.71" stop-color="#28366E"/>
<stop offset="1" stop-color="#27346D"/>
</radialGradient>
<radialGradient id="paint15_radial_30_94" cx="0" cy="0" r="1" gradientUnits="userSpaceOnUse" gradientTransform="translate(101.078 86.1112) scale(100.3)">
<stop stop-color="#2CAAE1"/>
<stop offset="0.13" stop-color="#2BA4DB"/>
<stop offset="0.29" stop-color="#2A96CC"/>
<stop offset="0.47" stop-color="#287DB3"/>
<stop offset="0.66" stop-color="#255B90"/>
<stop offset="0.83" stop-color="#233569"/>
<stop offset="0.86" stop-color="#233F73"/>
<stop offset="0.9" stop-color="#255B90"/>
<stop offset="0.96" stop-color="#2988BF"/>
<stop offset="1" stop-color="#2CAAE1"/>
</radialGradient>
<radialGradient id="paint16_radial_30_94" cx="0" cy="0" r="1" gradientUnits="userSpaceOnUse" gradientTransform="translate(96.2877 78.0112) scale(101.65)">
<stop stop-color="#2CAAE1"/>
<stop offset="0.2" stop-color="#2EAAE1"/>
<stop offset="0.35" stop-color="#38AEE1"/>
<stop offset="0.48" stop-color="#48B3E2"/>
<stop offset="0.61" stop-color="#5FBBE3"/>
<stop offset="0.72" stop-color="#7CC4E4"/>
<stop offset="0.83" stop-color="#A0D0E5"/>
<stop offset="0.94" stop-color="#CADEE7"/>
<stop offset="1" stop-color="#E7E8E9"/>
</radialGradient>
<radialGradient id="paint17_radial_30_94" cx="0" cy="0" r="1" gradientUnits="userSpaceOnUse" gradientTransform="translate(79.5947 161.73) rotate(98.56) scale(6.19 6.19)">
<stop stop-color="white" stop-opacity="0.87"/>
<stop offset="1" stop-color="#010101" stop-opacity="0"/>
</radialGradient>
<radialGradient id="paint18_radial_30_94" cx="0" cy="0" r="1" gradientUnits="userSpaceOnUse" gradientTransform="translate(14.0405 134.884) rotate(98.56) scale(6.19)">
<stop stop-color="white" stop-opacity="0.87"/>
<stop offset="1" stop-color="#010101" stop-opacity="0"/>
</radialGradient>
<radialGradient id="paint19_radial_30_94" cx="0" cy="0" r="1" gradientUnits="userSpaceOnUse" gradientTransform="translate(156.626 88.8843) rotate(98.56) scale(6.19)">
<stop stop-color="white" stop-opacity="0.87"/>
<stop offset="1" stop-color="#010101" stop-opacity="0"/>
</radialGradient>
<radialGradient id="paint20_radial_30_94" cx="0" cy="0" r="1" gradientUnits="userSpaceOnUse" gradientTransform="translate(138.088 10.7812) scale(5.23)">
<stop stop-color="white" stop-opacity="0.87"/>
<stop offset="1" stop-color="#010101" stop-opacity="0"/>
</radialGradient>
<radialGradient id="paint21_radial_30_94" cx="0" cy="0" r="1" gradientUnits="userSpaceOnUse" gradientTransform="translate(51.3205 75.6629) rotate(98.56) scale(6.19)">
<stop stop-color="white" stop-opacity="0.87"/>
<stop offset="1" stop-color="#010101" stop-opacity="0"/>
</radialGradient>
<radialGradient id="paint22_radial_30_94" cx="0" cy="0" r="1" gradientUnits="userSpaceOnUse" gradientTransform="translate(183.852 110.831) rotate(98.56) scale(6.19)">
<stop stop-color="white" stop-opacity="0.87"/>
<stop offset="1" stop-color="#010101" stop-opacity="0"/>
</radialGradient>
<radialGradient id="paint23_radial_30_94" cx="0" cy="0" r="1" gradientUnits="userSpaceOnUse" gradientTransform="translate(78.1116 26.5334) rotate(98.56) scale(3.99 3.99)">
<stop stop-color="white" stop-opacity="0.87"/>
<stop offset="1" stop-color="#010101" stop-opacity="0"/>
</radialGradient>
<radialGradient id="paint24_radial_30_94" cx="0" cy="0" r="1" gradientUnits="userSpaceOnUse" gradientTransform="translate(29.7788 81.8555) rotate(98.56) scale(3.99)">
<stop stop-color="white" stop-opacity="0.87"/>
<stop offset="1" stop-color="#010101" stop-opacity="0"/>
</radialGradient>
<radialGradient id="paint25_radial_30_94" cx="0" cy="0" r="1" gradientUnits="userSpaceOnUse" gradientTransform="translate(56.7215 169.715) rotate(98.56) scale(3.99)">
<stop stop-color="white" stop-opacity="0.87"/>
<stop offset="1" stop-color="#010101" stop-opacity="0"/>
</radialGradient>
<radialGradient id="paint26_radial_30_94" cx="0" cy="0" r="1" gradientUnits="userSpaceOnUse" gradientTransform="translate(144.849 146.898) rotate(98.56) scale(6.19)">
<stop stop-color="white" stop-opacity="0.87"/>
<stop offset="1" stop-color="#010101" stop-opacity="0"/>
</radialGradient>
</defs>
</svg>
